<svg width="512" height="512" viewBox="0 0 100 100" xmlns="http://www.w3.org/2000/svg">
  <rect x="0" y="0" width="100" height="100" rx="22" fill="#7a4122"/>
  <rect x="4" y="4" width="92" height="92" rx="19" fill="none" stroke="#9c6141" stroke-width="0.6" opacity="0.5"/>
  <text x="50" y="14" text-anchor="middle" font-family="Helvetica, Arial, sans-serif" font-size="8.5" font-weight="700" letter-spacing="1.2" fill="#f7ede0">FOURNIL</text>
  <path d="M 30 74 L 30 58 A 20 20 0 0 1 70 58 L 70 74" fill="none" stroke="#f7ede0" stroke-width="3.2" stroke-linecap="round"/>
  <line x1="26" y1="74" x2="74" y2="74" stroke="#f7ede0" stroke-width="3.2" stroke-linecap="round"/>
  <path d="M 50 26 C 41 34 39 44 45 50 C 43 44 47 40 50 37 C 53 41 57 45 55 51 C 63 47 63 34 55 27 C 55 32 53 34 51 32 C 51 29 50.5 27 50 26 Z" fill="#f7ede0"/>
  <text x="50" y="64" text-anchor="middle" font-family="Helvetica, Arial, sans-serif" font-size="10" font-weight="700" letter-spacing="0.6" fill="#f7ede0">App</text>
</svg>
